<mxfile host="app.diagrams.net" modified="2020-10-22T14:51:46.048Z" agent="5.0 (Windows NT 10.0; Win64; x64) AppleWebKit/537.36 (KHTML, like Gecko) Chrome/86.0.4240.80 Safari/537.36 Edg/86.0.622.48" etag="qKuKNjh--6KXvMZJRvB3" version="13.8.1" type="github">
  <diagram id="C5RBs43oDa-KdzZeNtuy" name="Page-1">
    <mxGraphModel dx="1185" dy="643" grid="1" gridSize="10" guides="1" tooltips="1" connect="1" arrows="1" fold="1" page="1" pageScale="1" pageWidth="827" pageHeight="1169" math="0" shadow="0">
      <root>
        <mxCell id="WIyWlLk6GJQsqaUBKTNV-0" />
        <mxCell id="WIyWlLk6GJQsqaUBKTNV-1" parent="WIyWlLk6GJQsqaUBKTNV-0" />
        <mxCell id="-fShvXhJAneemEz7oOzi-4" value="" style="edgeStyle=orthogonalEdgeStyle;rounded=0;orthogonalLoop=1;jettySize=auto;html=1;" edge="1" parent="WIyWlLk6GJQsqaUBKTNV-1" target="-fShvXhJAneemEz7oOzi-3">
          <mxGeometry relative="1" as="geometry">
            <mxPoint x="410" y="300" as="sourcePoint" />
          </mxGeometry>
        </mxCell>
        <mxCell id="-fShvXhJAneemEz7oOzi-6" value="" style="edgeStyle=orthogonalEdgeStyle;rounded=0;orthogonalLoop=1;jettySize=auto;html=1;" edge="1" parent="WIyWlLk6GJQsqaUBKTNV-1" source="-fShvXhJAneemEz7oOzi-3" target="-fShvXhJAneemEz7oOzi-5">
          <mxGeometry relative="1" as="geometry" />
        </mxCell>
        <mxCell id="-fShvXhJAneemEz7oOzi-3" value="Инициализация основной очереди" style="whiteSpace=wrap;html=1;rounded=0;" vertex="1" parent="WIyWlLk6GJQsqaUBKTNV-1">
          <mxGeometry x="350" y="320" width="120" height="60" as="geometry" />
        </mxCell>
        <mxCell id="-fShvXhJAneemEz7oOzi-10" value="" style="edgeStyle=orthogonalEdgeStyle;rounded=0;orthogonalLoop=1;jettySize=auto;html=1;entryX=0.5;entryY=0;entryDx=0;entryDy=0;entryPerimeter=0;" edge="1" parent="WIyWlLk6GJQsqaUBKTNV-1" source="-fShvXhJAneemEz7oOzi-73" target="-fShvXhJAneemEz7oOzi-60">
          <mxGeometry relative="1" as="geometry">
            <mxPoint x="410" y="480" as="targetPoint" />
          </mxGeometry>
        </mxCell>
        <mxCell id="-fShvXhJAneemEz7oOzi-5" value="&lt;span&gt;Инициализация дополнительной очереди&lt;/span&gt;" style="whiteSpace=wrap;html=1;rounded=0;" vertex="1" parent="WIyWlLk6GJQsqaUBKTNV-1">
          <mxGeometry x="350" y="400" width="120" height="60" as="geometry" />
        </mxCell>
        <mxCell id="-fShvXhJAneemEz7oOzi-17" value="" style="edgeStyle=orthogonalEdgeStyle;rounded=0;orthogonalLoop=1;jettySize=auto;html=1;exitX=0.5;exitY=1;exitDx=0;exitDy=0;exitPerimeter=0;" edge="1" parent="WIyWlLk6GJQsqaUBKTNV-1" source="-fShvXhJAneemEz7oOzi-60" target="-fShvXhJAneemEz7oOzi-16">
          <mxGeometry relative="1" as="geometry">
            <mxPoint x="410" y="560" as="sourcePoint" />
          </mxGeometry>
        </mxCell>
        <mxCell id="-fShvXhJAneemEz7oOzi-15" value="" style="shape=delay;whiteSpace=wrap;html=1;" vertex="1" parent="WIyWlLk6GJQsqaUBKTNV-1">
          <mxGeometry x="570" y="380" width="80" height="40" as="geometry" />
        </mxCell>
        <mxCell id="-fShvXhJAneemEz7oOzi-16" value="Нажата клавиша" style="rhombus;whiteSpace=wrap;html=1;arcSize=20;" vertex="1" parent="WIyWlLk6GJQsqaUBKTNV-1">
          <mxGeometry x="350" y="600" width="120" height="120" as="geometry" />
        </mxCell>
        <mxCell id="-fShvXhJAneemEz7oOzi-18" value="" style="endArrow=classic;html=1;exitX=0.5;exitY=1;exitDx=0;exitDy=0;entryX=0.5;entryY=0;entryDx=0;entryDy=0;entryPerimeter=0;" edge="1" parent="WIyWlLk6GJQsqaUBKTNV-1" source="-fShvXhJAneemEz7oOzi-16" target="-fShvXhJAneemEz7oOzi-61">
          <mxGeometry width="50" height="50" relative="1" as="geometry">
            <mxPoint x="410" y="700" as="sourcePoint" />
            <mxPoint x="410" y="1880" as="targetPoint" />
          </mxGeometry>
        </mxCell>
        <mxCell id="-fShvXhJAneemEz7oOzi-19" value="" style="endArrow=classic;html=1;entryX=0;entryY=0.5;entryDx=0;entryDy=0;" edge="1" parent="WIyWlLk6GJQsqaUBKTNV-1" target="-fShvXhJAneemEz7oOzi-20">
          <mxGeometry width="50" height="50" relative="1" as="geometry">
            <mxPoint x="410" y="750" as="sourcePoint" />
            <mxPoint x="466" y="750" as="targetPoint" />
          </mxGeometry>
        </mxCell>
        <mxCell id="-fShvXhJAneemEz7oOzi-32" value="" style="edgeStyle=orthogonalEdgeStyle;rounded=0;orthogonalLoop=1;jettySize=auto;html=1;" edge="1" parent="WIyWlLk6GJQsqaUBKTNV-1" source="-fShvXhJAneemEz7oOzi-20">
          <mxGeometry relative="1" as="geometry">
            <mxPoint x="520" y="810" as="targetPoint" />
          </mxGeometry>
        </mxCell>
        <mxCell id="-fShvXhJAneemEz7oOzi-20" value="Start" style="shape=parallelogram;perimeter=parallelogramPerimeter;whiteSpace=wrap;html=1;fixedSize=1;" vertex="1" parent="WIyWlLk6GJQsqaUBKTNV-1">
          <mxGeometry x="460" y="720" width="120" height="60" as="geometry" />
        </mxCell>
        <mxCell id="-fShvXhJAneemEz7oOzi-100" style="edgeStyle=orthogonalEdgeStyle;rounded=0;orthogonalLoop=1;jettySize=auto;html=1;entryX=0.5;entryY=0;entryDx=0;entryDy=0;" edge="1" parent="WIyWlLk6GJQsqaUBKTNV-1" source="-fShvXhJAneemEz7oOzi-21" target="-fShvXhJAneemEz7oOzi-94">
          <mxGeometry relative="1" as="geometry" />
        </mxCell>
        <mxCell id="-fShvXhJAneemEz7oOzi-21" value="Stop" style="shape=parallelogram;perimeter=parallelogramPerimeter;whiteSpace=wrap;html=1;fixedSize=1;" vertex="1" parent="WIyWlLk6GJQsqaUBKTNV-1">
          <mxGeometry x="460" y="960" width="120" height="60" as="geometry" />
        </mxCell>
        <mxCell id="-fShvXhJAneemEz7oOzi-22" value="" style="endArrow=classic;html=1;entryX=0.083;entryY=0.483;entryDx=0;entryDy=0;entryPerimeter=0;" edge="1" parent="WIyWlLk6GJQsqaUBKTNV-1" target="-fShvXhJAneemEz7oOzi-21">
          <mxGeometry width="50" height="50" relative="1" as="geometry">
            <mxPoint x="410" y="989" as="sourcePoint" />
            <mxPoint x="460" y="1000" as="targetPoint" />
          </mxGeometry>
        </mxCell>
        <mxCell id="-fShvXhJAneemEz7oOzi-43" value="" style="edgeStyle=orthogonalEdgeStyle;rounded=0;orthogonalLoop=1;jettySize=auto;html=1;" edge="1" parent="WIyWlLk6GJQsqaUBKTNV-1" source="-fShvXhJAneemEz7oOzi-23" target="-fShvXhJAneemEz7oOzi-42">
          <mxGeometry relative="1" as="geometry" />
        </mxCell>
        <mxCell id="-fShvXhJAneemEz7oOzi-23" value="Close" style="shape=parallelogram;perimeter=parallelogramPerimeter;whiteSpace=wrap;html=1;fixedSize=1;" vertex="1" parent="WIyWlLk6GJQsqaUBKTNV-1">
          <mxGeometry x="460" y="1463" width="120" height="60" as="geometry" />
        </mxCell>
        <mxCell id="-fShvXhJAneemEz7oOzi-26" value="" style="endArrow=classic;html=1;entryX=0;entryY=0.5;entryDx=0;entryDy=0;" edge="1" parent="WIyWlLk6GJQsqaUBKTNV-1" target="-fShvXhJAneemEz7oOzi-23">
          <mxGeometry width="50" height="50" relative="1" as="geometry">
            <mxPoint x="410" y="1492.58" as="sourcePoint" />
            <mxPoint x="466" y="1493" as="targetPoint" />
          </mxGeometry>
        </mxCell>
        <mxCell id="-fShvXhJAneemEz7oOzi-34" value="" style="edgeStyle=orthogonalEdgeStyle;rounded=0;orthogonalLoop=1;jettySize=auto;html=1;" edge="1" parent="WIyWlLk6GJQsqaUBKTNV-1" source="-fShvXhJAneemEz7oOzi-27">
          <mxGeometry relative="1" as="geometry">
            <mxPoint x="520" y="1197" as="targetPoint" />
          </mxGeometry>
        </mxCell>
        <mxCell id="-fShvXhJAneemEz7oOzi-27" value="Top bar" style="shape=parallelogram;perimeter=parallelogramPerimeter;whiteSpace=wrap;html=1;fixedSize=1;" vertex="1" parent="WIyWlLk6GJQsqaUBKTNV-1">
          <mxGeometry x="460" y="1120" width="120" height="60" as="geometry" />
        </mxCell>
        <mxCell id="-fShvXhJAneemEz7oOzi-30" value="" style="endArrow=classic;html=1;entryX=0.083;entryY=0.5;entryDx=0;entryDy=0;entryPerimeter=0;" edge="1" parent="WIyWlLk6GJQsqaUBKTNV-1" target="-fShvXhJAneemEz7oOzi-27">
          <mxGeometry width="50" height="50" relative="1" as="geometry">
            <mxPoint x="410" y="1149.58" as="sourcePoint" />
            <mxPoint x="466" y="1150" as="targetPoint" />
          </mxGeometry>
        </mxCell>
        <mxCell id="-fShvXhJAneemEz7oOzi-38" value="" style="edgeStyle=orthogonalEdgeStyle;rounded=0;orthogonalLoop=1;jettySize=auto;html=1;" edge="1" parent="WIyWlLk6GJQsqaUBKTNV-1" source="-fShvXhJAneemEz7oOzi-35" target="-fShvXhJAneemEz7oOzi-37">
          <mxGeometry relative="1" as="geometry" />
        </mxCell>
        <mxCell id="-fShvXhJAneemEz7oOzi-35" value="Получение &lt;br&gt;координат курсора" style="shape=parallelogram;perimeter=parallelogramPerimeter;whiteSpace=wrap;html=1;fixedSize=1;" vertex="1" parent="WIyWlLk6GJQsqaUBKTNV-1">
          <mxGeometry x="450" y="1197" width="140" height="70" as="geometry" />
        </mxCell>
        <mxCell id="-fShvXhJAneemEz7oOzi-40" value="" style="edgeStyle=orthogonalEdgeStyle;rounded=0;orthogonalLoop=1;jettySize=auto;html=1;" edge="1" parent="WIyWlLk6GJQsqaUBKTNV-1" source="-fShvXhJAneemEz7oOzi-37" target="-fShvXhJAneemEz7oOzi-39">
          <mxGeometry relative="1" as="geometry" />
        </mxCell>
        <mxCell id="-fShvXhJAneemEz7oOzi-37" value="Conect WinApi" style="shape=process;whiteSpace=wrap;html=1;backgroundOutline=1;" vertex="1" parent="WIyWlLk6GJQsqaUBKTNV-1">
          <mxGeometry x="460" y="1297" width="120" height="60" as="geometry" />
        </mxCell>
        <mxCell id="-fShvXhJAneemEz7oOzi-41" style="edgeStyle=orthogonalEdgeStyle;rounded=0;orthogonalLoop=1;jettySize=auto;html=1;" edge="1" parent="WIyWlLk6GJQsqaUBKTNV-1" source="-fShvXhJAneemEz7oOzi-39">
          <mxGeometry relative="1" as="geometry">
            <mxPoint x="410" y="1417" as="targetPoint" />
          </mxGeometry>
        </mxCell>
        <mxCell id="-fShvXhJAneemEz7oOzi-39" value="Изменение положения окна" style="rounded=0;whiteSpace=wrap;html=1;" vertex="1" parent="WIyWlLk6GJQsqaUBKTNV-1">
          <mxGeometry x="460" y="1387" width="120" height="60" as="geometry" />
        </mxCell>
        <mxCell id="-fShvXhJAneemEz7oOzi-46" value="" style="edgeStyle=orthogonalEdgeStyle;rounded=0;orthogonalLoop=1;jettySize=auto;html=1;" edge="1" parent="WIyWlLk6GJQsqaUBKTNV-1" source="-fShvXhJAneemEz7oOzi-42" target="-fShvXhJAneemEz7oOzi-45">
          <mxGeometry relative="1" as="geometry" />
        </mxCell>
        <mxCell id="-fShvXhJAneemEz7oOzi-89" value="" style="edgeStyle=orthogonalEdgeStyle;rounded=0;orthogonalLoop=1;jettySize=auto;html=1;" edge="1" parent="WIyWlLk6GJQsqaUBKTNV-1" source="-fShvXhJAneemEz7oOzi-42" target="-fShvXhJAneemEz7oOzi-88">
          <mxGeometry relative="1" as="geometry" />
        </mxCell>
        <mxCell id="-fShvXhJAneemEz7oOzi-42" value="Загрузка в начало главной очереди элемента Close&amp;nbsp;" style="whiteSpace=wrap;html=1;" vertex="1" parent="WIyWlLk6GJQsqaUBKTNV-1">
          <mxGeometry x="460" y="1540" width="120" height="60" as="geometry" />
        </mxCell>
        <mxCell id="-fShvXhJAneemEz7oOzi-50" value="" style="edgeStyle=orthogonalEdgeStyle;rounded=0;orthogonalLoop=1;jettySize=auto;html=1;" edge="1" parent="WIyWlLk6GJQsqaUBKTNV-1" source="-fShvXhJAneemEz7oOzi-45" target="-fShvXhJAneemEz7oOzi-49">
          <mxGeometry relative="1" as="geometry" />
        </mxCell>
        <mxCell id="-fShvXhJAneemEz7oOzi-91" value="" style="edgeStyle=orthogonalEdgeStyle;rounded=0;orthogonalLoop=1;jettySize=auto;html=1;" edge="1" parent="WIyWlLk6GJQsqaUBKTNV-1" source="-fShvXhJAneemEz7oOzi-45" target="-fShvXhJAneemEz7oOzi-90">
          <mxGeometry relative="1" as="geometry" />
        </mxCell>
        <mxCell id="-fShvXhJAneemEz7oOzi-45" value="Загрузка в начало дополнительной очереди&amp;nbsp;элемента Close&amp;nbsp;" style="whiteSpace=wrap;html=1;" vertex="1" parent="WIyWlLk6GJQsqaUBKTNV-1">
          <mxGeometry x="460" y="1620" width="120" height="60" as="geometry" />
        </mxCell>
        <mxCell id="-fShvXhJAneemEz7oOzi-62" style="edgeStyle=orthogonalEdgeStyle;rounded=0;orthogonalLoop=1;jettySize=auto;html=1;entryX=1.007;entryY=0.523;entryDx=0;entryDy=0;entryPerimeter=0;" edge="1" parent="WIyWlLk6GJQsqaUBKTNV-1" source="-fShvXhJAneemEz7oOzi-49" target="-fShvXhJAneemEz7oOzi-61">
          <mxGeometry relative="1" as="geometry" />
        </mxCell>
        <mxCell id="-fShvXhJAneemEz7oOzi-49" value="Прерывание цикла" style="whiteSpace=wrap;html=1;" vertex="1" parent="WIyWlLk6GJQsqaUBKTNV-1">
          <mxGeometry x="460" y="1700" width="120" height="60" as="geometry" />
        </mxCell>
        <mxCell id="-fShvXhJAneemEz7oOzi-57" value="Close" style="html=1;dashed=0;whitespace=wrap;shape=mxgraph.dfd.start" vertex="1" parent="WIyWlLk6GJQsqaUBKTNV-1">
          <mxGeometry x="326" y="1854" width="168" height="50" as="geometry" />
        </mxCell>
        <mxCell id="-fShvXhJAneemEz7oOzi-115" value="" style="edgeStyle=orthogonalEdgeStyle;rounded=0;orthogonalLoop=1;jettySize=auto;html=1;" edge="1" parent="WIyWlLk6GJQsqaUBKTNV-1" source="-fShvXhJAneemEz7oOzi-58" target="-fShvXhJAneemEz7oOzi-114">
          <mxGeometry relative="1" as="geometry" />
        </mxCell>
        <mxCell id="-fShvXhJAneemEz7oOzi-58" value="&lt;h4 style=&quot;font-size: 16px&quot;&gt;&lt;div&gt;&lt;span style=&quot;font-family: &amp;#34;times new roman&amp;#34; ; font-weight: normal&quot;&gt;Запуск&lt;/span&gt;&lt;/div&gt;&lt;font face=&quot;Times New Roman&quot;&gt;&lt;span style=&quot;font-weight: normal&quot;&gt;программы&lt;/span&gt;&lt;/font&gt;&lt;/h4&gt;" style="html=1;dashed=0;whitespace=wrap;shape=mxgraph.dfd.start" vertex="1" parent="WIyWlLk6GJQsqaUBKTNV-1">
          <mxGeometry x="325" y="50" width="170" height="60" as="geometry" />
        </mxCell>
        <mxCell id="-fShvXhJAneemEz7oOzi-60" value="&lt;span&gt;LOOP&lt;/span&gt;&lt;br&gt;&lt;span&gt;Buttom click&lt;/span&gt;&lt;br&gt;&lt;span&gt;&amp;nbsp;event&lt;/span&gt;" style="html=1;dashed=0;whitespace=wrap;shape=mxgraph.dfd.loop" vertex="1" parent="WIyWlLk6GJQsqaUBKTNV-1">
          <mxGeometry x="350" y="530" width="120" height="50" as="geometry" />
        </mxCell>
        <mxCell id="-fShvXhJAneemEz7oOzi-63" value="" style="edgeStyle=orthogonalEdgeStyle;rounded=0;orthogonalLoop=1;jettySize=auto;html=1;" edge="1" parent="WIyWlLk6GJQsqaUBKTNV-1" source="-fShvXhJAneemEz7oOzi-61" target="-fShvXhJAneemEz7oOzi-57">
          <mxGeometry relative="1" as="geometry" />
        </mxCell>
        <mxCell id="-fShvXhJAneemEz7oOzi-61" value="END LOOP" style="html=1;dashed=0;whitespace=wrap;shape=mxgraph.dfd.loop" vertex="1" parent="WIyWlLk6GJQsqaUBKTNV-1">
          <mxGeometry x="350" y="1770" width="120" height="50" as="geometry" />
        </mxCell>
        <mxCell id="-fShvXhJAneemEz7oOzi-64" value="" style="shape=ellipse;html=1;dashed=0;whitespace=wrap;aspect=fixed;strokeWidth=5;perimeter=ellipsePerimeter;" vertex="1" parent="WIyWlLk6GJQsqaUBKTNV-1">
          <mxGeometry x="210" y="1400" width="60" height="60" as="geometry" />
        </mxCell>
        <mxCell id="-fShvXhJAneemEz7oOzi-66" value="" style="ellipse;shape=doubleEllipse;html=1;dashed=0;whitespace=wrap;aspect=fixed;" vertex="1" parent="WIyWlLk6GJQsqaUBKTNV-1">
          <mxGeometry x="210" y="1315" width="60" height="60" as="geometry" />
        </mxCell>
        <mxCell id="-fShvXhJAneemEz7oOzi-68" value="&lt;span&gt;LOOP&lt;/span&gt;&lt;br&gt;Main event" style="html=1;dashed=0;whitespace=wrap;shape=mxgraph.dfd.loop" vertex="1" parent="WIyWlLk6GJQsqaUBKTNV-1">
          <mxGeometry x="130" y="530" width="120" height="50" as="geometry" />
        </mxCell>
        <mxCell id="-fShvXhJAneemEz7oOzi-69" value="&lt;span&gt;LOOP&lt;/span&gt;&lt;br&gt;2nd machine event" style="html=1;dashed=0;whitespace=wrap;shape=mxgraph.dfd.loop" vertex="1" parent="WIyWlLk6GJQsqaUBKTNV-1">
          <mxGeometry x="690" y="530" width="120" height="50" as="geometry" />
        </mxCell>
        <mxCell id="-fShvXhJAneemEz7oOzi-71" value="" style="endArrow=classic;html=1;entryX=0.5;entryY=0;entryDx=0;entryDy=0;entryPerimeter=0;exitX=0;exitY=0.5;exitDx=0;exitDy=0;" edge="1" parent="WIyWlLk6GJQsqaUBKTNV-1" source="-fShvXhJAneemEz7oOzi-73" target="-fShvXhJAneemEz7oOzi-68">
          <mxGeometry width="50" height="50" relative="1" as="geometry">
            <mxPoint x="410" y="470" as="sourcePoint" />
            <mxPoint x="190" y="520" as="targetPoint" />
            <Array as="points">
              <mxPoint x="190" y="495" />
            </Array>
          </mxGeometry>
        </mxCell>
        <mxCell id="-fShvXhJAneemEz7oOzi-73" value="" style="shape=lineEllipse;line=vertical;perimeter=ellipsePerimeter;whiteSpace=wrap;html=1;backgroundOutline=1;" vertex="1" parent="WIyWlLk6GJQsqaUBKTNV-1">
          <mxGeometry x="395" y="480" width="30" height="30" as="geometry" />
        </mxCell>
        <mxCell id="-fShvXhJAneemEz7oOzi-74" value="" style="edgeStyle=orthogonalEdgeStyle;rounded=0;orthogonalLoop=1;jettySize=auto;html=1;entryX=0.5;entryY=0;entryDx=0;entryDy=0;entryPerimeter=0;" edge="1" parent="WIyWlLk6GJQsqaUBKTNV-1" source="-fShvXhJAneemEz7oOzi-5" target="-fShvXhJAneemEz7oOzi-73">
          <mxGeometry relative="1" as="geometry">
            <mxPoint x="410" y="460" as="sourcePoint" />
            <mxPoint x="410" y="530" as="targetPoint" />
          </mxGeometry>
        </mxCell>
        <mxCell id="-fShvXhJAneemEz7oOzi-84" value="" style="endArrow=classic;html=1;exitX=1;exitY=0.5;exitDx=0;exitDy=0;entryX=0.5;entryY=0;entryDx=0;entryDy=0;entryPerimeter=0;" edge="1" parent="WIyWlLk6GJQsqaUBKTNV-1" source="-fShvXhJAneemEz7oOzi-73" target="-fShvXhJAneemEz7oOzi-69">
          <mxGeometry width="50" height="50" relative="1" as="geometry">
            <mxPoint x="550" y="490" as="sourcePoint" />
            <mxPoint x="670" y="495" as="targetPoint" />
            <Array as="points">
              <mxPoint x="750" y="495" />
            </Array>
          </mxGeometry>
        </mxCell>
        <mxCell id="-fShvXhJAneemEz7oOzi-85" value="&lt;span&gt;END LOOP&lt;/span&gt;&lt;br&gt;Main event" style="html=1;dashed=0;whitespace=wrap;shape=mxgraph.dfd.loop" vertex="1" parent="WIyWlLk6GJQsqaUBKTNV-1">
          <mxGeometry x="130" y="610" width="120" height="50" as="geometry" />
        </mxCell>
        <mxCell id="-fShvXhJAneemEz7oOzi-86" value="&lt;span&gt;END LOOP&lt;/span&gt;&lt;br&gt;2nd machine event" style="html=1;dashed=0;whitespace=wrap;shape=mxgraph.dfd.loop" vertex="1" parent="WIyWlLk6GJQsqaUBKTNV-1">
          <mxGeometry x="690" y="660" width="120" height="50" as="geometry" />
        </mxCell>
        <mxCell id="-fShvXhJAneemEz7oOzi-88" value="&lt;font style=&quot;font-size: 16px&quot;&gt;&lt;b&gt;1&lt;/b&gt;&lt;/font&gt;" style="shape=ellipse;html=1;dashed=0;whitespace=wrap;aspect=fixed;perimeter=ellipsePerimeter;" vertex="1" parent="WIyWlLk6GJQsqaUBKTNV-1">
          <mxGeometry x="600" y="1555" width="30" height="30" as="geometry" />
        </mxCell>
        <mxCell id="-fShvXhJAneemEz7oOzi-90" value="&lt;b&gt;&lt;font style=&quot;font-size: 16px&quot;&gt;2&lt;/font&gt;&lt;/b&gt;" style="shape=ellipse;html=1;dashed=0;whitespace=wrap;aspect=fixed;perimeter=ellipsePerimeter;" vertex="1" parent="WIyWlLk6GJQsqaUBKTNV-1">
          <mxGeometry x="600" y="1635" width="30" height="30" as="geometry" />
        </mxCell>
        <mxCell id="-fShvXhJAneemEz7oOzi-92" value="" style="edgeStyle=orthogonalEdgeStyle;rounded=0;orthogonalLoop=1;jettySize=auto;html=1;" edge="1" parent="WIyWlLk6GJQsqaUBKTNV-1" source="-fShvXhJAneemEz7oOzi-94">
          <mxGeometry relative="1" as="geometry">
            <mxPoint x="410" y="1070" as="targetPoint" />
          </mxGeometry>
        </mxCell>
        <mxCell id="-fShvXhJAneemEz7oOzi-93" value="" style="edgeStyle=orthogonalEdgeStyle;rounded=0;orthogonalLoop=1;jettySize=auto;html=1;" edge="1" parent="WIyWlLk6GJQsqaUBKTNV-1" source="-fShvXhJAneemEz7oOzi-94" target="-fShvXhJAneemEz7oOzi-97">
          <mxGeometry relative="1" as="geometry" />
        </mxCell>
        <mxCell id="-fShvXhJAneemEz7oOzi-94" value="Загрузка в главную очередь элемента Stop" style="whiteSpace=wrap;html=1;" vertex="1" parent="WIyWlLk6GJQsqaUBKTNV-1">
          <mxGeometry x="460" y="1040" width="120" height="60" as="geometry" />
        </mxCell>
        <mxCell id="-fShvXhJAneemEz7oOzi-97" value="&lt;font style=&quot;font-size: 16px&quot;&gt;&lt;b&gt;1&lt;/b&gt;&lt;/font&gt;" style="shape=ellipse;html=1;dashed=0;whitespace=wrap;aspect=fixed;perimeter=ellipsePerimeter;" vertex="1" parent="WIyWlLk6GJQsqaUBKTNV-1">
          <mxGeometry x="610" y="1055" width="30" height="30" as="geometry" />
        </mxCell>
        <mxCell id="-fShvXhJAneemEz7oOzi-103" value="" style="edgeStyle=orthogonalEdgeStyle;rounded=0;orthogonalLoop=1;jettySize=auto;html=1;" edge="1" parent="WIyWlLk6GJQsqaUBKTNV-1" source="-fShvXhJAneemEz7oOzi-104" target="-fShvXhJAneemEz7oOzi-105">
          <mxGeometry relative="1" as="geometry" />
        </mxCell>
        <mxCell id="-fShvXhJAneemEz7oOzi-108" value="" style="edgeStyle=orthogonalEdgeStyle;rounded=0;orthogonalLoop=1;jettySize=auto;html=1;" edge="1" parent="WIyWlLk6GJQsqaUBKTNV-1" source="-fShvXhJAneemEz7oOzi-104" target="-fShvXhJAneemEz7oOzi-106">
          <mxGeometry relative="1" as="geometry" />
        </mxCell>
        <mxCell id="-fShvXhJAneemEz7oOzi-104" value="Загрузка в главную очередь элемента Start" style="whiteSpace=wrap;html=1;" vertex="1" parent="WIyWlLk6GJQsqaUBKTNV-1">
          <mxGeometry x="460" y="810" width="120" height="60" as="geometry" />
        </mxCell>
        <mxCell id="-fShvXhJAneemEz7oOzi-105" value="&lt;font style=&quot;font-size: 16px&quot;&gt;&lt;b&gt;1&lt;/b&gt;&lt;/font&gt;" style="shape=ellipse;html=1;dashed=0;whitespace=wrap;aspect=fixed;perimeter=ellipsePerimeter;" vertex="1" parent="WIyWlLk6GJQsqaUBKTNV-1">
          <mxGeometry x="595" y="825" width="30" height="30" as="geometry" />
        </mxCell>
        <mxCell id="-fShvXhJAneemEz7oOzi-109" style="edgeStyle=orthogonalEdgeStyle;rounded=0;orthogonalLoop=1;jettySize=auto;html=1;" edge="1" parent="WIyWlLk6GJQsqaUBKTNV-1" source="-fShvXhJAneemEz7oOzi-106">
          <mxGeometry relative="1" as="geometry">
            <mxPoint x="410" y="920" as="targetPoint" />
          </mxGeometry>
        </mxCell>
        <mxCell id="-fShvXhJAneemEz7oOzi-106" value="Запись в Progress bar макс значения = Кол-ву деталей" style="whiteSpace=wrap;html=1;" vertex="1" parent="WIyWlLk6GJQsqaUBKTNV-1">
          <mxGeometry x="460" y="890" width="120" height="60" as="geometry" />
        </mxCell>
        <mxCell id="-fShvXhJAneemEz7oOzi-110" value="Настройка положения окна" style="whiteSpace=wrap;html=1;rounded=0;" vertex="1" parent="WIyWlLk6GJQsqaUBKTNV-1">
          <mxGeometry x="350" y="240" width="120" height="60" as="geometry" />
        </mxCell>
        <mxCell id="-fShvXhJAneemEz7oOzi-113" value="&lt;b&gt;&lt;i&gt;&lt;font style=&quot;font-size: 14px&quot;&gt;Инициализация&lt;br&gt;&lt;/font&gt;&lt;/i&gt;&lt;/b&gt;&lt;br&gt;&lt;b&gt;Кластер - Объекты:&lt;br&gt;&lt;/b&gt;Время на обработку 1 станка (Lint32)&lt;br&gt;Шанс брака 1 станка (Double)&lt;br&gt;Время на обработку 2 станка (Lint32)&lt;br&gt;Шанс брака 2 станка (Double)&lt;br&gt;Время загрузки 1 станка (Lint32)&lt;br&gt;Время загрузки 2 станка (Lint32)&lt;br&gt;Время до урны (Lint32)&lt;br&gt;Время до магазина (Lint32)&lt;br&gt;Время между магазинами (Lint32)&lt;br&gt;Кол-во деталей (Lint32)&lt;br&gt;Повторная обработка на станке (bool)&lt;br&gt;Ускоренно/Реально (bool)&lt;br&gt;&lt;b&gt;Остальные:&lt;br&gt;&lt;/b&gt;Примерное время обработки (String)&lt;br&gt;Общее кол-во обработок (Lint32)&lt;br&gt;Количество брака (Lint32)&lt;br&gt;START (bool)&lt;br&gt;STOP (bool)&lt;br&gt;ERROR (String)&lt;br&gt;Progress (Lint32)&lt;br&gt;Top bar (bool)" style="rounded=0;whiteSpace=wrap;html=1;" vertex="1" parent="WIyWlLk6GJQsqaUBKTNV-1">
          <mxGeometry x="60" y="70" width="230" height="350" as="geometry" />
        </mxCell>
        <mxCell id="-fShvXhJAneemEz7oOzi-116" value="" style="edgeStyle=orthogonalEdgeStyle;rounded=0;orthogonalLoop=1;jettySize=auto;html=1;" edge="1" parent="WIyWlLk6GJQsqaUBKTNV-1" source="-fShvXhJAneemEz7oOzi-114" target="-fShvXhJAneemEz7oOzi-110">
          <mxGeometry relative="1" as="geometry" />
        </mxCell>
        <mxCell id="-fShvXhJAneemEz7oOzi-119" style="edgeStyle=orthogonalEdgeStyle;rounded=0;orthogonalLoop=1;jettySize=auto;html=1;" edge="1" parent="WIyWlLk6GJQsqaUBKTNV-1" source="-fShvXhJAneemEz7oOzi-114">
          <mxGeometry relative="1" as="geometry">
            <mxPoint x="290" y="170" as="targetPoint" />
          </mxGeometry>
        </mxCell>
        <mxCell id="-fShvXhJAneemEz7oOzi-114" value="Переменные и индикаторы" style="rounded=1;whiteSpace=wrap;html=1;" vertex="1" parent="WIyWlLk6GJQsqaUBKTNV-1">
          <mxGeometry x="350" y="140" width="120" height="60" as="geometry" />
        </mxCell>
      </root>
    </mxGraphModel>
  </diagram>
</mxfile>
